<svg width="140" height="140" viewBox="0 0 140 140" fill="none" xmlns="http://www.w3.org/2000/svg">
<path d="M70.0001 128.333C37.7826 128.333 11.6667 102.217 11.6667 69.9995C11.6667 37.782 37.7826 11.6662 70.0001 11.6662C102.218 11.6662 128.333 37.782 128.333 69.9995C128.333 102.217 102.218 128.333 70.0001 128.333ZM70.0001 116.666C82.3769 116.666 94.2467 111.75 102.998 102.998C111.75 94.2461 116.667 82.3763 116.667 69.9995C116.667 57.6227 111.75 45.7529 102.998 37.0012C94.2467 28.2495 82.3769 23.3328 70.0001 23.3328C57.6233 23.3328 45.7535 28.2495 37.0018 37.0012C28.2501 45.7529 23.3334 57.6227 23.3334 69.9995C23.3334 82.3763 28.2501 94.2461 37.0018 102.998C45.7535 111.75 57.6233 116.666 70.0001 116.666ZM64.1842 93.3328L39.4334 68.582L47.6817 60.3337L64.1842 76.8362L97.1776 43.837L105.432 52.0853L64.1842 93.3328Z" fill="white"/>
</svg>
