<svg width="145" height="111" viewBox="0 0 145 111" fill="none" xmlns="http://www.w3.org/2000/svg">
    <g clip-path="url(#clip0_1_2)">
        <path d="M145 0H0V111H145V0Z" fill="none"/>
        <path d="M55 0H0V20H55V0Z" fill="white"/>
        <path fill-rule="evenodd" clip-rule="evenodd"
              d="M22.7378 17.6409C22.9525 17.4262 23.1692 17.1957 23.3846 16.9644C23.7695 16.5066 24.1906 16.0767 24.6404 15.6779C24.7706 15.5598 24.908 15.4501 25.052 15.3493C25.0709 15.3304 25.0804 15.302 25.0898 15.2737C25.0992 15.2453 25.1087 15.217 25.1276 15.1981C25.0332 15.2359 24.9576 15.2926 24.882 15.3492C24.8064 15.4059 24.7308 15.4626 24.6363 15.5004C24.5985 15.5004 24.5607 15.4627 24.5985 15.4249L25.0023 15.122C24.994 15.1225 24.9852 15.1225 24.9764 15.1225C24.9387 15.1225 24.9387 15.0848 24.9387 15.0469C24.4514 14.972 24.0758 15.3058 23.7378 15.6061L23.7292 15.6138C23.6788 15.6391 23.6284 15.6138 23.5892 15.5942C23.5697 15.5844 23.5529 15.576 23.5403 15.576C23.2432 15.6751 22.9876 15.8572 22.7301 16.0407C22.4962 16.2074 22.2606 16.3752 21.9909 16.4831V16.4075C21.8969 16.4388 21.804 16.4807 21.7109 16.5227C21.5793 16.5821 21.4472 16.6417 21.3106 16.672C21.0548 16.7288 20.8204 16.7216 20.5913 16.7145C20.5158 16.7121 20.4405 16.7098 20.3656 16.7098C19.9035 16.766 19.4447 16.8477 18.9915 16.9545L18.9717 16.9594L18.9627 16.9616L18.952 16.9644C18.7068 17.0305 18.4704 17.1257 18.2478 17.248C18.239 17.2527 18.2304 17.2578 18.222 17.263C18.2032 17.2866 18.1847 17.3092 18.1673 17.3284C18.096 17.4195 18.008 17.4962 17.9081 17.5545C17.7438 17.6381 17.6006 17.7657 17.4584 17.8923C17.3997 17.9446 17.3412 17.9968 17.2814 18.0456C17.2636 18.058 17.2425 18.0647 17.2208 18.0648C17.1585 18.1246 17.0965 18.1846 17.0344 18.2446C16.8946 18.3797 16.7547 18.5152 16.6121 18.6474C16.5761 18.6641 16.5358 18.6689 16.4968 18.6612C16.5072 18.6457 16.5146 18.6338 16.5218 18.6218C16.5536 18.5684 16.5859 18.5153 16.6186 18.4624C16.6552 18.4033 16.6925 18.3448 16.7307 18.2869C16.7822 18.2087 16.8352 18.1314 16.8916 18.0568C16.9047 18.0426 16.9041 18.0206 16.8902 18.0072C16.876 17.9937 16.857 17.9866 16.8374 17.9874C17.0307 17.8066 17.2435 17.6478 17.4718 17.514C17.4466 17.5163 17.4099 17.4961 17.429 17.4695C17.4431 17.4499 17.4554 17.4296 17.4676 17.4092C17.4763 17.3949 17.4849 17.3806 17.4942 17.3665C17.4985 17.3553 17.5024 17.344 17.5063 17.3328C17.5004 17.3263 17.4945 17.3203 17.4886 17.3142L17.4777 17.303C17.4155 17.3399 17.3561 17.3814 17.3001 17.4271C17.2727 17.4518 17.2471 17.4843 17.2209 17.5176C17.1607 17.5942 17.0973 17.6748 17.0017 17.6737C16.9823 17.6734 16.963 17.6706 16.9444 17.6655C16.9304 17.6636 16.9169 17.659 16.9047 17.652L16.9096 17.6433L16.9152 17.6327L16.9207 17.6229L16.9387 17.5904L16.9484 17.5729L16.9567 17.5578L16.9712 17.5316C16.9802 17.5156 16.9889 17.4999 16.998 17.4837L17.0056 17.4704L17.0097 17.4634L17.0178 17.4495C17.0291 17.43 17.0404 17.4107 17.0518 17.3913L17.0666 17.3661L17.0899 17.326L17.1065 17.2975L17.1184 17.2771L17.1301 17.2573C17.1379 17.2449 17.1391 17.2296 17.1335 17.2161C17.1278 17.2027 17.116 17.1928 17.1017 17.1897C17.172 17.098 17.26 17.0213 17.3605 16.9642H17.3491C17.4487 16.914 17.5483 16.8565 17.6479 16.7989C17.6928 16.7729 17.7382 16.7467 17.7831 16.7214C17.7971 16.7095 17.8107 16.6975 17.8244 16.6856L17.8456 16.6674C17.6329 16.7393 17.4306 16.8391 17.244 16.9641C17.2216 16.9729 17.2003 16.9845 17.1807 16.9986C17.1452 17.0063 17.1085 16.9928 17.0864 16.9641C17.0803 16.9561 17.0771 16.9463 17.0773 16.9363C17.0994 16.8923 17.1471 16.861 17.198 16.8277C17.2345 16.8038 17.2726 16.7788 17.3042 16.7473C17.3418 16.7473 17.3796 16.7473 17.3796 16.7851C18.1301 16.1988 19.055 16.0637 19.9831 15.9282C20.5507 15.8454 21.1196 15.7623 21.6503 15.5757L21.9904 15.349C22.0876 15.3101 22.1748 15.2412 22.2674 15.1681C22.3549 15.099 22.4471 15.0261 22.5572 14.971C22.8626 14.7614 23.0889 14.4553 23.1997 14.1019C23.1957 14.0732 23.1825 14.0466 23.162 14.0262C22.687 14.5383 22.1238 14.9608 21.4991 15.2734C20.9268 15.5732 20.3152 15.6175 19.7068 15.6615C19.4715 15.6785 19.2366 15.6955 19.0047 15.7273C19.0426 15.6518 19.1182 15.6518 19.1937 15.6518C19.1937 15.562 19.241 15.5196 19.2982 15.4684C19.3133 15.4549 19.3291 15.4408 19.3449 15.425H19.4584C19.4772 15.425 19.4866 15.4061 19.496 15.3872C19.5055 15.3683 19.5149 15.3494 19.5338 15.3494C19.6094 15.3494 19.7229 15.3116 19.6851 15.3116C19.6275 15.2348 19.5407 15.2652 19.4444 15.299C19.3511 15.3316 19.249 15.3674 19.156 15.3116C19.1925 15.2751 19.2025 15.2297 19.2117 15.1883C19.2214 15.1441 19.2302 15.1044 19.2693 15.0849H19.4205C19.4284 15.0276 19.455 14.9744 19.4961 14.9337C19.8328 14.7316 20.1562 14.5562 20.4742 14.3838C20.6916 14.2659 20.9065 14.1494 21.1215 14.0266C21.0775 14.0266 21.0393 14.0436 21.0023 14.0601C20.9438 14.0862 20.8886 14.1108 20.8192 14.0645C20.857 14.0645 20.857 14.0361 20.857 14.0078C20.857 13.9794 20.857 13.951 20.8948 13.951C21.1327 13.8862 21.3458 13.7842 21.5625 13.6804C21.7245 13.6029 21.8885 13.5245 22.0663 13.4598C22.0145 13.4598 21.967 13.4732 21.921 13.4861C21.8329 13.5109 21.7499 13.5343 21.6506 13.4598C21.6757 13.4472 21.6967 13.4304 21.7177 13.4136C21.7597 13.38 21.8017 13.3464 21.8773 13.3464V13.233C21.8773 13.1952 21.9152 13.1952 21.953 13.1952C21.9243 13.1912 21.8977 13.178 21.8773 13.1574C21.8969 13.1184 21.9366 13.1096 21.9808 13.0998C22.0222 13.0906 22.0676 13.0806 22.1041 13.0441C22.0663 13.0441 21.9907 13.0441 21.9907 13.0063C22.1041 12.8551 22.293 12.8172 22.4821 12.7795C22.4631 12.7417 22.4253 12.7417 22.3922 12.7417C22.3592 12.7417 22.3308 12.7417 22.3308 12.7039C22.3308 12.6661 22.3686 12.6661 22.4064 12.6661H22.3308C22.2722 12.6368 22.2818 12.5848 22.289 12.5453C22.2911 12.5338 22.293 12.5234 22.293 12.515C22.4442 12.3386 22.4946 12.1286 22.5449 11.9187C22.5701 11.8137 22.5953 11.7087 22.6331 11.6079C22.5953 11.6079 22.5575 11.6079 22.5575 11.5701C22.1907 11.9737 21.61 12.1279 21.0579 12.2746L21.0081 12.2878H20.8192C20.6098 12.37 20.3749 12.3562 20.1766 12.25C20.0851 12.2042 20.0213 12.1446 19.9517 12.0796C19.9063 12.0371 19.8584 11.9924 19.7988 11.9476C19.5032 11.7589 19.186 11.6065 18.8539 11.4938C17.9155 11.187 16.9307 11.0464 15.9439 11.0782C16.2155 10.93 16.5055 10.8704 16.7989 10.8101C16.9546 10.7781 17.1113 10.7459 17.2667 10.7002C17.3606 10.6726 17.4538 10.6441 17.5464 10.6158C18.0876 10.4505 18.6132 10.29 19.194 10.3222C19.1172 10.2966 19.023 10.3057 18.9349 10.3143C18.8931 10.3183 18.8526 10.3222 18.8161 10.3222C18.3905 10.2918 17.9648 10.3837 17.5192 10.4799C17.411 10.5033 17.3016 10.5269 17.1907 10.5491C17.0019 10.5868 16.8226 10.6435 16.6432 10.7001C16.4636 10.7568 16.284 10.8135 16.0948 10.8513C16.0077 10.8804 15.9373 10.9317 15.8686 10.9818C15.7586 11.0621 15.653 11.1392 15.49 11.1158V11.0025C15.868 10.5486 16.3215 10.0955 16.9262 10.0577C17.5011 9.9619 18.0491 10.0281 18.6157 10.0965C18.7194 10.109 18.824 10.1216 18.9293 10.1333C19.4138 10.1848 19.8936 10.2732 20.3647 10.3978C20.4686 10.3978 20.5268 10.4891 20.5832 10.5776C20.6295 10.6502 20.6746 10.721 20.7428 10.738C20.8334 10.7682 20.9242 10.7743 21.0149 10.7803C21.151 10.7894 21.2871 10.7984 21.4229 10.8891C21.4229 10.8639 21.4187 10.8387 21.4145 10.8136C21.4061 10.7632 21.3977 10.7128 21.4229 10.6624C21.5082 10.577 21.6056 10.6001 21.7014 10.6228C21.7754 10.6403 21.8485 10.6575 21.9143 10.6246C22.1194 10.4964 21.9244 10.2986 21.7306 10.102C21.6388 10.0089 21.5472 9.916 21.4986 9.8309C21.5026 9.8023 21.5158 9.7757 21.5363 9.7553C21.6269 9.8346 21.7107 9.9173 21.7938 9.9993C21.9881 10.1909 22.1787 10.3788 22.4433 10.5112C22.6323 10.5867 23.0858 10.7002 23.0102 10.4735C22.8778 10.182 22.6524 9.9277 22.4254 9.6715C22.3285 9.5622 22.2314 9.4526 22.141 9.3396V9.189C22.0857 9.189 22.0709 9.1687 22.0521 9.1431C22.0452 9.1337 22.0378 9.1235 22.0277 9.1134V8.9623C21.9326 8.9148 21.9123 8.8374 21.8915 8.7583C21.8792 8.7116 21.8668 8.6643 21.8387 8.6222C21.7755 8.5169 21.771 8.3882 21.7663 8.2556C21.7626 8.1501 21.7588 8.0422 21.7253 7.9418C21.6571 7.7323 21.6066 7.5174 21.574 7.2994C21.5296 7.0473 21.4794 6.8069 21.4303 6.5713C21.3542 6.2063 21.2803 5.8528 21.234 5.4854C21.1758 4.9327 21.4537 4.4693 21.7399 3.992C21.8254 3.8495 21.9117 3.7057 21.9899 3.558C22.2544 3.1041 22.5567 2.6509 23.048 2.3486C23.1612 1.896 23.4622 1.5192 23.7632 1.1424L23.7657 1.1393C24.0675 0.770399 24.569 0.545701 24.9323 0.383301C25.26 0.237801 25.5952 0.1098 25.9365 0H0V19.9994H18.3682C18.8695 19.6385 19.3703 19.4096 19.9676 19.1366C20.2277 19.0177 20.506 18.8905 20.8106 18.7404C20.8691 18.7116 20.9368 18.6789 21.0112 18.6428L21.0129 18.642C21.5435 18.3852 22.416 17.9629 22.7378 17.6409ZM16.7372 14.8958C16.7637 14.7632 16.9017 14.7237 17.0341 14.6857C17.0905 14.6696 17.1458 14.6538 17.191 14.6312L17.2091 14.6219L17.2295 14.611C17.3016 14.5724 17.392 14.5239 17.4556 14.5556C17.4984 14.6198 17.5533 14.6355 17.6066 14.6508C17.6474 14.6625 17.6874 14.674 17.7202 14.7068C17.5837 14.8431 17.42 14.8565 17.2537 14.8701C17.1433 14.8792 17.0317 14.8883 16.9262 14.9336C16.9078 14.9336 16.885 14.9358 16.8615 14.9381C16.7883 14.9452 16.7086 14.953 16.7372 14.8958ZM12.3154 12.0991C11.976 12.7794 11.5709 13.4249 11.1061 14.0265C11.11 14.0552 11.1233 14.0818 11.1439 14.1022C12.051 13.0817 12.8824 12.2125 14.0535 11.4944C14.0825 11.48 14.0726 11.4932 14.0579 11.5129C14.0343 11.5447 13.9981 11.5933 14.0913 11.57C14.4841 11.4794 14.6595 11.1472 14.8299 10.8245C14.8726 10.7435 14.915 10.6632 14.9605 10.5874C15.1362 10.3019 15.3885 10.1186 15.6431 9.9335C15.8267 9.8 16.0116 9.6656 16.1699 9.4915C16.175 9.533 16.1611 9.5747 16.1321 9.6048C16.1623 9.6339 16.204 9.6478 16.2455 9.6426C16.3114 9.5933 16.3843 9.5726 16.455 9.5525C16.547 9.5264 16.6353 9.5013 16.6994 9.4159C16.386 9.2904 16.0389 9.277 15.7167 9.378C14.923 9.756 14.2429 10.3607 13.6003 11.041C13.2146 11.4494 12.8067 11.8346 12.3154 12.0991ZM14.1672 11.759C14.1375 11.8265 14.0836 11.8804 14.0161 11.9102C13.9783 11.9102 13.9405 11.9102 13.9405 11.8724C13.9744 11.7137 14.0892 11.5845 14.2429 11.5322C14.2807 11.5321 14.2807 11.57 14.2807 11.6078C14.2613 11.6467 14.2408 11.6677 14.2208 11.6881C14.202 11.7074 14.1836 11.7262 14.1672 11.759ZM15.9925 17.4389C16.023 17.4109 15.9899 17.39 15.9426 17.3804C15.9814 17.3509 16.0131 17.3133 16.0356 17.2701C16.0665 17.1959 15.8667 17.2137 15.8356 17.2353C15.8051 17.2596 15.7778 17.2878 15.7544 17.319C15.705 17.3722 15.6525 17.4224 15.5973 17.4695C15.5558 17.5075 15.5155 17.5466 15.4752 17.5856C15.4235 17.6358 15.3718 17.6859 15.3179 17.7334C15.2543 17.7893 15.4621 17.8186 15.5069 17.7788C15.5552 17.736 15.6017 17.6914 15.6479 17.6466C15.6675 17.6458 15.687 17.6432 15.7061 17.6387C15.8147 17.5933 15.9124 17.5252 15.9925 17.4389ZM15.3491 16.9644L15.3046 16.9958C15.1779 17.0852 15.051 17.1747 14.9176 17.2522C14.7978 17.3217 14.6739 17.3788 14.5496 17.4362C14.5061 17.4562 14.4625 17.4763 14.4191 17.497C14.4179 17.4937 14.4162 17.4906 14.4142 17.4878C14.3998 17.4676 14.3728 17.4611 14.3509 17.4726C14.2119 17.5518 14.0841 17.6492 13.9709 17.7622C13.9533 17.7789 13.9357 17.7959 13.9181 17.8131C13.8942 17.8366 13.8763 17.8544 13.8584 17.8724L13.8521 17.8787C13.8515 17.8793 13.8512 17.88 13.8509 17.8806L13.8498 17.8822C13.8229 17.9089 13.7971 17.9359 13.7675 17.9706C13.7539 17.9909 13.7368 18.0088 13.7171 18.0233C13.6936 18.0389 13.6286 18.0386 13.6346 17.995V17.9876L13.6319 17.9891C13.6105 18.0003 13.5891 18.0116 13.5675 18.022C13.5479 18.0312 13.5304 18.0415 13.5126 18.052L13.5085 18.0544C13.5002 18.0512 13.4913 18.0499 13.4824 18.0506C13.4726 18.0507 13.4631 18.0539 13.4552 18.0597C13.409 18.0959 13.3633 18.1345 13.3187 18.1749C13.2393 18.2464 13.1659 18.3244 13.0994 18.408L13.0886 18.422L13.0773 18.4366C13.0737 18.4416 13.0692 18.4472 13.0653 18.4523L13.0616 18.4569L13.056 18.4649L13.0451 18.4809L13.036 18.4945C13.026 18.5049 13.0151 18.5101 13.0035 18.5117L12.9972 18.5025C12.9941 18.4981 12.991 18.4937 12.9883 18.4891L12.982 18.4784L12.9777 18.4708C12.9662 18.4513 12.9555 18.4311 12.9454 18.4103L12.9443 18.408L12.94 18.3992L12.9354 18.3893C12.9763 18.3453 13.0158 18.2998 13.054 18.2532L13.0616 18.2441C13.0749 18.2279 13.0879 18.2118 13.1009 18.1956L13.1642 18.1147C13.1688 18.1085 13.1733 18.1027 13.1779 18.0969L13.1873 18.0848C13.2288 18.0306 13.2685 17.978 13.3055 17.9252L13.3083 17.9211L13.3149 17.9113C13.3181 17.9067 13.3212 17.902 13.3246 17.8973C13.3427 17.8706 13.3601 17.8436 13.3764 17.8161C13.3911 17.7914 13.4049 17.7663 13.4177 17.7407L13.4208 17.7351L13.4247 17.7273C13.4258 17.7251 13.4268 17.7228 13.4277 17.7205C13.4288 17.7181 13.4298 17.7156 13.4309 17.7132C13.4442 17.6847 13.4562 17.6554 13.4668 17.6251L13.4702 17.6153L13.4723 17.6091C13.4745 17.603 13.4767 17.5968 13.4786 17.5905C13.4829 17.5769 13.4868 17.5629 13.4905 17.5488C13.4912 17.5457 13.4917 17.5426 13.4926 17.5396L13.4959 17.5264C13.4994 17.5126 13.5029 17.4987 13.5057 17.4842C13.5073 17.4754 13.5057 17.4664 13.5011 17.4588C13.5437 17.3857 13.5939 17.3173 13.6509 17.2547C13.6482 17.2564 13.6453 17.258 13.6424 17.2595C13.6394 17.2611 13.6364 17.2628 13.6336 17.2646C13.6035 17.284 13.579 17.3076 13.5545 17.3313C13.5351 17.3502 13.5156 17.369 13.4933 17.3857C13.4521 17.4164 13.3763 17.3655 13.425 17.329C13.4552 17.3049 13.4839 17.2789 13.5109 17.2511C13.5747 17.1765 13.639 17.1124 13.7078 17.0532L13.724 17.0415C13.7608 17.0148 13.7934 16.9911 13.8239 16.9645C13.8277 16.9612 13.8312 16.9577 13.835 16.9543L13.8404 16.9494C13.8662 16.9157 13.8944 16.8839 13.9249 16.8544L13.9265 16.8528C13.9272 16.852 13.9279 16.8513 13.9288 16.8507C14.1499 16.6373 14.4634 16.5601 14.7827 16.4816C14.9857 16.4316 15.1911 16.381 15.3765 16.2945C15.4817 16.2524 15.5987 16.2689 15.7144 16.2853C15.8063 16.2984 15.8974 16.3113 15.981 16.2945C16.0996 16.2829 16.2187 16.3095 16.3212 16.3702C16.0593 16.5128 15.8125 16.6697 15.5712 16.8232C15.4999 16.8686 15.4292 16.9136 15.3586 16.9578L15.3491 16.9644ZM15.9812 14.2533H16.2836C16.2623 14.296 16.2048 14.3025 16.1656 14.307C16.1354 14.3104 16.1161 14.3126 16.1325 14.3291C16.246 14.4422 16.4727 14.4045 16.6238 14.3289C16.7386 14.2643 16.8709 14.2378 17.0017 14.2533C17.0395 14.2533 17.0395 14.1777 17.0395 14.14C17.137 14.171 17.2395 14.1839 17.3417 14.1777C18.2488 13.9887 19.1181 13.7998 19.9495 13.384C19.1105 12.7387 18.0786 12.4515 17.0656 12.1696C16.8922 12.1214 16.7194 12.0733 16.5481 12.0235C16.5859 12.0235 16.6237 12.0361 16.6615 12.0487C16.7371 12.0739 16.8127 12.0991 16.8883 12.0235C16.7855 11.9413 16.6714 11.9262 16.5583 11.9112C16.4637 11.8987 16.3697 11.8863 16.2836 11.8346C16.2921 11.8346 16.3025 11.8365 16.314 11.8386C16.3535 11.8459 16.4055 11.8554 16.4348 11.7968C16.2333 11.6961 16.0318 11.6625 15.8303 11.6289C15.7295 11.6121 15.6286 11.5952 15.5277 11.57C15.7088 11.5374 15.838 11.376 15.8301 11.1921C15.8301 11.1544 15.7545 11.1544 15.7167 11.1544C15.2632 11.3811 14.9608 11.7968 14.7719 12.2881C14.9407 12.3846 15.1248 12.3733 15.3047 12.3624C15.4068 12.3562 15.5076 12.35 15.6034 12.3637C15.5192 12.4476 15.3938 12.4694 15.273 12.4904C15.2306 12.4978 15.1888 12.505 15.1495 12.5149C15.0335 12.5438 14.9227 12.6282 14.9605 12.7038C14.9811 12.7324 15.0118 12.7519 15.0464 12.7585C14.9571 12.782 14.8755 12.8283 14.8094 12.8928C14.9176 12.9738 15.0257 12.9584 15.1337 12.9429C15.1769 12.9368 15.22 12.9306 15.2632 12.9306C15.2632 12.981 15.2968 12.9978 15.3305 13.0146C15.3473 13.023 15.3641 13.0314 15.3767 13.044C15.2115 13.1042 15.076 13.2261 14.9987 13.384C14.9533 13.4975 14.8671 13.57 14.781 13.6426C14.7235 13.691 14.6661 13.7393 14.6208 13.7998V13.9131C14.4923 14.0287 14.3595 14.1311 14.2284 14.2324C13.9734 14.4292 13.7244 14.6213 13.5248 14.8958C13.5625 14.8958 13.5625 14.9336 13.5625 14.9713C13.5283 15.0227 13.4786 15.0586 13.4309 15.093C13.3733 15.1345 13.3187 15.1738 13.2979 15.2358C13.2979 15.2737 13.2979 15.3115 13.3358 15.3115C13.5735 15.2323 13.78 15.1012 13.9825 14.9726C14.1665 14.8558 14.3473 14.741 14.5452 14.6691C14.7068 14.6286 14.8467 14.5559 14.9824 14.4853C15.1006 14.4239 15.2156 14.3641 15.3388 14.3289C15.4332 14.31 15.5372 14.2817 15.6411 14.2533C15.7451 14.225 15.849 14.1966 15.9435 14.1777C15.9435 14.2155 15.9435 14.2533 15.9812 14.2533ZM17.7243 17.5846C17.7273 17.5824 17.7303 17.58 17.7333 17.5776L17.74 17.5722C17.7947 17.5336 17.8455 17.4842 17.891 17.4252C17.8879 17.4242 17.8848 17.4231 17.8817 17.4218C17.8788 17.4207 17.876 17.4193 17.8732 17.4179C17.8228 17.4695 17.7738 17.525 17.7243 17.5846ZM25.0965 15.1046L25.018 15.1633C25.0614 15.1613 25.0965 15.1503 25.0965 15.1046Z"
              fill="#000091"/>
        <path d="M54.9993 0H33.4856C33.5572 0.0235 33.6257 0.0553993 33.6898 0.0949993C33.8645 0.188699 34.0909 0.3096 34.2326 0.3839C34.5225 0.5174 34.7714 0.726201 34.9532 0.988501C35.0288 1.1019 35.1422 1.3287 35.0666 1.4799C34.991 1.6688 34.9532 1.9712 34.7643 2.0468C34.5375 2.1601 34.2351 2.1601 33.9706 2.1223C33.8168 2.1157 33.6644 2.0903 33.5167 2.0468C34.0835 2.2735 34.6126 2.5381 34.9906 3.0672C35.0284 3.1428 35.1795 3.1805 35.3308 3.1805C35.3686 3.1805 35.3686 3.2561 35.3686 3.2939C35.2929 3.3696 35.2173 3.4073 35.2551 3.5206H35.3686C35.5575 3.445 35.5197 3.0668 35.7843 3.1805C35.9772 3.2994 36.0435 3.5483 35.9354 3.7474C35.7937 3.8844 35.642 4.0107 35.4816 4.1253C35.4438 4.2094 35.4438 4.3057 35.4816 4.3899C35.5762 4.526 35.6406 4.6807 35.6705 4.8437C35.784 5.1082 35.8217 5.4106 35.9351 5.6751C36.0863 6.242 36.2374 6.8089 36.1996 7.3758C36.1996 7.6782 36.0484 7.9427 36.1618 8.2451C36.2374 8.5474 36.4263 8.7742 36.5776 9.0387C36.7286 9.2654 36.8799 9.4166 36.9933 9.6434C37.2199 10.0213 37.6357 10.3992 37.4472 10.8527C37.3338 11.1172 36.9181 11.0795 36.6536 11.2307C36.4268 11.4196 36.6158 11.7219 36.7291 11.9109C36.9181 12.2511 36.5023 12.4778 36.2378 12.5912C36.3134 12.7045 36.4646 12.6667 36.5023 12.7423C36.5401 12.9313 36.7291 13.0447 36.6158 13.2336C36.4646 13.4604 36.0111 13.5738 36.2378 13.9139C36.389 14.1785 36.2906 14.4723 36.2001 14.7454C36.0867 15.0855 35.7844 15.2366 35.5198 15.3123C35.2869 15.3812 35.041 15.3941 34.8021 15.35C34.7331 15.3082 34.6557 15.2823 34.5754 15.2745C33.9328 15.1988 33.2903 15.0099 32.6479 15.0099C32.4658 15.0376 32.288 15.0884 32.1188 15.161C31.9542 15.2817 31.8011 15.4171 31.6612 15.5657L31.6568 15.5704C31.6284 15.6006 31.6012 15.6312 31.5744 15.662C31.5579 15.6811 31.5418 15.7006 31.5257 15.72C31.5148 15.7329 31.5041 15.7459 31.4935 15.759C31.3838 15.8967 31.2844 16.0423 31.196 16.1946C31.1904 16.2042 31.1847 16.2138 31.1793 16.2235C31.1694 16.241 31.1598 16.2587 31.1501 16.2763C31.0312 16.497 30.9353 16.7293 30.8639 16.9697C30.607 17.8351 30.7193 18.5777 30.8997 18.7579C30.9499 18.8081 32.1471 19.1777 32.981 19.5487C33.2886 19.6779 33.5867 19.8287 33.873 20H54.9993V0Z"
              fill="#E1000F"/>
        <path d="M34.7651 7.296C34.9164 7.3338 35.143 7.3338 35.143 7.4094C35.0675 7.7116 34.6138 7.7872 34.3871 8.0897H34.274C34.1607 8.1653 34.1985 8.3542 34.0851 8.3542C33.9707 8.3291 33.8512 8.3424 33.745 8.392C33.8962 8.5431 34.0851 8.6567 34.3118 8.6187C34.3769 8.6413 34.4218 8.7012 34.4252 8.7701C34.4542 8.7673 34.4812 8.7538 34.5008 8.7322C34.5387 8.7322 34.5765 8.7322 34.5765 8.7701V8.9212C34.463 9.0724 34.274 8.9967 34.1227 9.0346C34.4075 9.1102 34.7071 9.1102 34.9918 9.0346C35.2187 8.959 34.9918 8.5807 35.1431 8.392C35.0676 8.392 35.1431 8.2786 35.0676 8.2786C35.1431 8.2031 35.2187 8.0897 35.2943 8.0519C35.3841 8.0543 35.4692 8.0118 35.5211 7.9385C35.5211 7.863 35.37 7.8252 35.4077 7.7494C35.6344 7.5985 35.8233 7.3716 35.7479 7.1449C35.71 7.0315 35.4077 7.0315 35.2187 6.9559C35.0296 6.8804 34.8029 6.9559 34.5763 6.9937C34.3872 6.9937 34.1982 7.1071 34.0093 7.1449C33.7519 7.2328 33.5097 7.3602 33.2916 7.5227C33.5622 7.4249 33.8403 7.3491 34.1231 7.296C34.3495 7.296 34.542 7.2402 34.7651 7.296Z"
              fill="#808080"/>
        <path d="M0.0599995 45H2.9V34.96L6.02 40.2H8.02L11.14 34.96V45H13.98V31H10.44L7.02 36.88L3.6 31H0.0599995V45ZM18.1873 45H21.0273V31H18.1873V45ZM25.2405 45H28.0805V34.88L34.3405 45H37.9805V31H35.1405V41.12L28.8805 31H25.2405V45ZM42.1959 45H45.0359V31H42.1959V45ZM47.9891 43.06C49.2291 44.54 50.8091 45.4 53.1691 45.4C55.7491 45.4 57.7891 43.82 57.8291 41.18C57.8291 36.38 51.4691 37.1 51.4691 34.56C51.4691 33.72 52.1291 33.08 53.1291 33.08C54.1891 33.08 55.1091 33.78 55.9291 34.84L58.0091 32.96C56.8091 31.54 55.2091 30.6 53.1091 30.6C50.4291 30.6 48.5891 32.44 48.5891 34.66C48.5891 39.4 54.9491 38.7 54.9491 41.28C54.9491 42.28 54.2691 42.88 53.1491 42.88C52.0091 42.88 50.8891 42.24 50.0491 41.16L47.9891 43.06ZM59.5692 33.58H63.8892V45H66.7292V33.58H71.0492V31H59.5692V33.58ZM76.6636 29.8H79.2636L77.0036 27.1H74.0836L76.6636 29.8ZM73.8436 45H82.004V42.64H76.6836V39.04H81.204V36.68H76.6836V33.36H82.004V31H73.8436V45ZM85.604 45H88.444V39.34H89.904L93.644 45H96.984L92.604 38.8C94.044 38.14 94.864 36.88 94.864 35.18C94.864 32.58 92.964 31 89.884 31H85.604V45ZM90.044 33.36C91.244 33.36 91.944 34.08 91.944 35.14C91.944 36.28 91.244 36.98 90.044 36.98H88.444V33.36H90.044ZM99.083 45H107.243V42.64H101.923V39.04H106.443V36.68H101.923V33.36H107.243V31H99.083V45ZM0.0599995 66H5.56C10 66 13 62.78 13 59C13 55.22 10 52 5.56 52H0.0599995V66ZM5.6 54.58C8.2 54.58 10.08 56.5 10.08 59C10.08 61.48 8.2 63.42 5.6 63.42H2.9V54.58H5.6ZM16.0389 66H24.1989V63.64H18.8789V60.04H23.3989V57.68H18.8789V54.36H24.1989V52H16.0389V66ZM33.2897 66H41.4497V63.42H36.1297V52H33.2897V66ZM43.0945 66H46.1145L47.4545 62.36H53.0545L54.3945 66H57.4145L52.1145 52H48.3945L43.0945 66ZM48.3345 59.94L50.2545 54.68L52.1745 59.94H48.3345ZM68.427 64.84V52H65.587V64.98C65.587 66.42 64.927 66.96 63.667 66.96C63.387 66.96 63.147 66.94 62.947 66.9V69.4C63.227 69.48 63.607 69.48 64.067 69.48C66.987 69.48 68.427 67.94 68.427 64.84ZM80.755 60.76C80.755 62.64 79.6745 63.74 77.9345 63.74C76.1545 63.74 75.0945 62.64 75.0945 60.76V52H72.2545V60.52C72.2545 64.2 74.4145 66.4 77.9145 66.4C81.435 66.4 83.595 64.2 83.595 60.52V52H80.755V60.76ZM86.163 64.06C87.403 65.54 88.983 66.4 91.343 66.4C93.923 66.4 95.963 64.82 96.003 62.18C96.003 57.38 89.643 58.1 89.643 55.56C89.643 54.72 90.303 54.08 91.303 54.08C92.363 54.08 93.283 54.78 94.103 55.84L96.183 53.96C94.983 52.54 93.383 51.6 91.283 51.6C88.603 51.6 86.763 53.44 86.763 55.66C86.763 60.4 93.123 59.7 93.123 62.28C93.123 63.28 92.443 63.88 91.323 63.88C90.183 63.88 89.063 63.24 88.223 62.16L86.163 64.06ZM97.743 54.58H102.063V66H104.903V54.58H109.223V52H97.743V54.58ZM112.017 66H114.857V52H112.017V66ZM125.31 63.74C122.67 63.74 120.79 61.68 120.79 59C120.79 56.32 122.67 54.26 125.31 54.26C126.91 54.26 128.17 55.04 128.97 56.18L131.21 54.44C129.93 52.74 127.85 51.6 125.31 51.6C120.89 51.6 117.87 55 117.87 59C117.87 63 120.89 66.4 125.31 66.4C127.85 66.4 129.93 65.28 131.21 63.54L128.97 61.82C128.17 62.96 126.91 63.74 125.31 63.74ZM133.975 66H142.135V63.64H136.815V60.04H141.335V57.68H136.815V54.36H142.135V52H133.975V66Z"
              fill="#1E1E1E"/>
        <path fill-rule="evenodd" clip-rule="evenodd"
              d="M51.96 101.7L50.1 103.4H49.62L50.72 101.46H51.96V101.7ZM50.62 108.28H50.22C49.72 108.88 49.16 109.36 48.62 109.36C48.06 109.36 47.78 109.02 47.78 108.28C47.78 107.98 47.82 107.66 47.88 107.38L51.14 106.3C51.78 104.78 51.02 104.12 50.12 104.12C48.58 104.12 46.82 106.82 46.82 108.98C46.82 110 47.3 110.56 48.06 110.56C48.94 110.54 49.86 109.68 50.62 108.28ZM49.5 105C49.94 105 50.32 105.34 50.12 106.12L48.1 106.66C48.42 105.7 49.02 105 49.5 105ZM43.14 105.04H44.22L42.5 109.76C42.34 110.16 42.56 110.56 42.98 110.56C44.2 110.56 45.66 109.52 46.22 108.04H45.92C45.48 108.66 44.52 109.34 43.8 109.46L45.38 105.04H47L47.2 104.36H45.62L46.22 102.66H45.6L44.48 104.36L43.14 104.54V105.04ZM41.64 104.14C41.86 104.14 42.16 104.38 42.02 104.82L40.08 109.52C40.58 109.44 41.1 108.96 41.4 108.52H41.72C41.26 109.7 40.22 110.56 39.32 110.56C39.1 110.56 38.78 110.32 38.94 109.88L40.74 105.18C40.24 105.26 39.72 105.74 39.42 106.18H39.12C39.58 104.98 40.7 104.14 41.64 104.14ZM42.2 102.94C42.6 102.94 42.94 102.62 42.94 102.2C42.94 101.8 42.6 101.46 42.2 101.46C41.78 101.46 41.46 101.8 41.46 102.2C41.46 102.6 41.8 102.94 42.2 102.94ZM33.46 106.84C33.9 105.88 33.74 105.44 33.46 105.44C33.22 105.44 32.94 105.7 32.66 106.18H32.36C32.82 105.16 33.42 104.14 34.08 104.14C34.64 104.14 34.84 104.7 34.84 105.32V106.2C34.931 106.094 35.0195 105.99 35.106 105.889C35.9509 104.897 36.5961 104.14 37.34 104.14C37.92 104.14 38.22 104.5 38.22 105.04C38.22 105.36 38.12 105.76 37.9 106.18L36.24 109.52C36.74 109.44 37.26 108.96 37.56 108.52H37.86C37.4 109.72 36.28 110.56 35.34 110.56C34.92 110.56 34.68 110.12 34.86 109.76L36.78 106.06C37 105.64 37.04 105.36 36.7 105.36C36.24 105.36 35.16 106.12 34.58 106.82L33.32 110.14C33.18 110.48 33.04 110.56 32.72 110.56C32.2 110.56 31.94 110.22 32.18 109.68L33.46 106.84ZM32.16 105.56C32.38 104.8 32.26 104.12 31.68 104.12C30.9567 104.12 30.7302 104.598 30.0292 106.076L29.98 106.18V105.3C29.98 104.68 29.78 104.12 29.22 104.12C28.56 104.12 27.96 105.14 27.5 106.16H27.8C28.12 105.7 28.42 105.42 28.66 105.42C28.94 105.42 29.1 105.86 28.66 106.82L27.38 109.66C27.14 110.2 27.4 110.54 27.92 110.54C28.24 110.54 28.38 110.46 28.52 110.12L29.78 106.8C30.14 106.36 30.46 105.98 30.86 105.56H32.16ZM25.84 106.12C26.04 105.34 25.66 105 25.22 105C24.74 105 24.14 105.7 23.82 106.66L25.84 106.12ZM26.34 108.28H25.94C25.44 108.88 24.88 109.36 24.34 109.36C23.78 109.36 23.5 109.02 23.5 108.28C23.5 107.98 23.54 107.66 23.6 107.38L26.86 106.3C27.5 104.78 26.74 104.12 25.84 104.12C24.3 104.12 22.54 106.82 22.54 108.98C22.54 110 23.02 110.56 23.78 110.56C24.66 110.54 25.58 109.68 26.34 108.28ZM19.94 105.04H18.86V104.54L20.2 104.36L21.32 102.66H21.94L21.34 104.36H22.92L22.72 105.04H21.1L19.52 109.46C20.24 109.34 21.2 108.66 21.64 108.04H21.94C21.38 109.52 19.92 110.56 18.7 110.56C18.28 110.56 18.06 110.16 18.22 109.76L19.94 105.04ZM13.14 108.7C13.14 107.24 14.76 105.28 15.66 105.28C15.86 105.28 16.06 105.3 16.22 105.36L15.28 107.88C14.74 108.54 13.9 109.34 13.5 109.34C13.28 109.34 13.14 109.14 13.14 108.7ZM17.6 103.82L18.1 103.86L16.36 107.86C15.94 108.82 16.12 109.26 16.36 109.26C16.6 109.26 16.9 108.98 17.22 108.52H17.52C17.06 109.54 16.46 110.56 15.8 110.56C15.24 110.56 14.9 109.96 15 108.88L15.04 108.5L14.9311 108.652C14.2147 109.654 13.5664 110.56 12.9 110.56C12.32 110.56 12.02 110.2 12.02 109.66C12.02 107.34 14.56 104.38 16.94 104.38H17.04L17.6 103.82ZM13.02 105.56C13.24 104.8 13.12 104.12 12.54 104.12C11.8167 104.12 11.5902 104.598 10.8892 106.076L10.84 106.18V105.3C10.84 104.68 10.64 104.12 10.08 104.12C9.42 104.12 8.82 105.14 8.36 106.16H8.66C8.98 105.7 9.28 105.42 9.5 105.42C9.78 105.42 9.94 105.86 9.5 106.82L8.22 109.68C7.98 110.22 8.24 110.56 8.76 110.56C9.08 110.56 9.22 110.48 9.36 110.14L10.62 106.82C10.98 106.38 11.3 106 11.7 105.58H13.02V105.56ZM4.78 109.96L4.66 110.32H0L0.120001 109.94C1.56 109.68 1.8 109.56 2.4 107.94L3.7 104.46C4.28 102.84 4.16 102.72 2.9 102.46L3.02 102.1H9.08L8.72 104.04H8.28C8.28 102.88 8.16 102.58 7.06 102.58H6.78C5.7 102.58 5.56 102.74 5.26 103.58L4.4 105.92H5.66C6.5 105.92 6.82 105.4 7.2 104.72H7.64L6.6 107.56H6.16C6.26 106.7 6.26 106.36 5.48 106.36H4.22L3.64 107.96C3.013 109.625 3.1922 109.659 4.6851 109.942C4.7162 109.948 4.7478 109.954 4.78 109.96Z"
              fill="black"/>
        <path fill-rule="evenodd" clip-rule="evenodd"
              d="M8.74 86.4L6.88 87.74V87.76H6.4L7.5 86.16H8.74V86.4ZM21.74 95.78L24.72 87.86L24.62 87.74L22.56 87.98V88.22L22.96 88.52C23.3015 88.786 23.2111 89.033 22.9277 89.809L22.88 89.94L20.6 96.02C20.42 96.38 20.66 96.82 21.08 96.82C22.02 96.82 23.02 95.96 23.48 94.78H23.18C22.86 95.22 22.22 95.7 21.74 95.78ZM35.4 89.68L37.26 87.98V87.74H36.02L34.92 89.68H35.4ZM35.52 94.54H35.92C35.18 95.96 34.26 96.82 33.38 96.82C32.62 96.82 32.14 96.26 32.14 95.24C32.14 93.08 33.9 90.38 35.44 90.38C36.32 90.38 37.1 91.04 36.46 92.56L33.18 93.64C33.12 93.92 33.08 94.24 33.08 94.54C33.08 95.28 33.36 95.62 33.92 95.62C34.46 95.62 35.02 95.14 35.52 94.54ZM35.42 92.38C35.62 91.62 35.24 91.28 34.8 91.28C34.34 91.28 33.74 91.98 33.4 92.92L35.42 92.38ZM29.54 91.32H28.46V90.82L29.8 90.64L30.92 88.94H31.54L30.94 90.64H32.52L32.32 91.32H30.7L29.12 95.74C29.84 95.62 30.8 94.94 31.24 94.32H31.54C30.98 95.8 29.52 96.84 28.3 96.84C27.88 96.84 27.66 96.44 27.82 96.04L29.54 91.32ZM27.34 91.08C27.46 90.64 27.18 90.4 26.94 90.4C26 90.4 24.88 91.26 24.42 92.44H24.72C25.02 92 25.54 91.52 26.04 91.44L24.24 96.14C24.08 96.58 24.4 96.82 24.62 96.82C25.52 96.82 26.56 95.96 27.02 94.78H26.72C26.42 95.22 25.9 95.7 25.4 95.78L27.34 91.08ZM28.26 88.48C28.26 88.88 27.92 89.22 27.52 89.22C27.12 89.22 26.78 88.88 26.78 88.48C26.78 88.08 27.1 87.74 27.52 87.74C27.92 87.74 28.26 88.08 28.26 88.48ZM18.16 91.56C17.26 91.56 15.64 93.52 15.64 94.98C15.64 95.42 15.78 95.62 16.02 95.62C16.4 95.62 17.24 94.82 17.78 94.16L18.72 91.64C18.54 91.58 18.36 91.56 18.16 91.56ZM20.6 90.14L20.1 90.1L19.54 90.66H19.44C17.06 90.66 14.52 93.62 14.52 95.94C14.52 96.48 14.82 96.84 15.4 96.84C16.0664 96.84 16.7147 95.934 17.4311 94.932L17.54 94.78L17.5 95.16C17.4 96.24 17.74 96.84 18.3 96.84C18.96 96.84 19.56 95.82 20.02 94.8H19.72C19.4 95.26 19.1 95.54 18.86 95.54C18.62 95.54 18.44 95.1 18.86 94.14L20.6 90.14ZM10.52 96.62C9.66 96.96 9.06 97.36 9.06 97.98C9.06 98.56 9.6 98.8 10.72 98.8C12.22 98.8 13.04 98.36 13.04 97.78C13.04 97.52 12.7 97.4 11.8 97.1C11.22 96.92 10.8 96.76 10.52 96.62ZM11.52 94.16C11.12 94.16 10.98 93.82 10.98 93.46C10.98 92.3 11.54 90.86 12.44 90.86C12.84 90.86 12.98 91.2 12.98 91.56C12.96 92.74 12.4 94.16 11.52 94.16ZM12.28 96.04C13.38 96.38 14.06 96.64 14.06 97.4C14.06 98.38 12.26 99.54 10.08 99.52C8.82 99.52 7.74 99.18 7.74 98.36C7.74 97.58 8.46 96.94 10.22 96.42C9.98 96.26 9.88 96.06 9.88 95.78C9.88 95.3 10.32 94.92 11.08 94.56C10.34 94.46 9.86 93.9 9.86 93.08C9.86 91.82 10.9 90.38 12.54 90.38C12.88 90.38 13.18 90.46 13.42 90.62H15.22L15.02 91.3H13.96C14.02 91.48 14.06 91.68 14.06 91.9C14.06 93.12 13.08 94.52 11.52 94.6C11.12 94.82 10.92 95.12 10.92 95.36C10.92 95.642 11.2472 95.738 11.9702 95.949C12.0663 95.977 12.1697 96.007 12.28 96.04ZM5.94 92.62C6.72 92.62 6.74 92.96 6.62 93.82H7.06L8.1 90.98H7.66C7.28 91.66 6.96 92.18 6.12 92.18H4.4L5.24 89.84C5.54 89 5.68 88.84 6.76 88.84H7.52C8.62 88.84 8.74 89.14 8.74 90.3H9.18L9.54 88.36H3.02L2.9 88.72C4.16 88.98 4.28 89.1 3.7 90.72L2.4 94.22C1.8 95.84 1.56 95.96 0.1 96.22L0 96.6H7.24L8.54 94.54H8.04C7.2 95.36 6.36 96.12 4.72 96.12C2.9161 96.12 2.9483 96.032 3.4895 94.545C3.5243 94.449 3.5613 94.348 3.6 94.24L4.2 92.64H5.94V92.62Z"
              fill="black"/>
        <path fill-rule="evenodd" clip-rule="evenodd"
              d="M11.92 75.48C12.32 75.48 12.66 75.14 12.66 74.74C12.66 74.34 12.32 74 11.92 74C11.5 74 11.18 74.34 11.18 74.74C11.18 75.16 11.5 75.48 11.92 75.48ZM13.66 83.08C15.22 83.1 17.84 80.22 17.84 78C17.84 77.04 17.6 76.68 16.92 76.68C16.08 76.68 15.3 77.58 14.52 78.66L16.2 74.16L16.1 74.02L14.04 74.26V74.5L14.44 74.8C14.7883 75.0709 14.6873 75.3418 14.3906 76.1378L14.36 76.22L12.54 80.98C12.38 81.38 12.2 81.86 12.2 81.98C12.2 82.54 12.96 83.08 13.66 83.08ZM35.18 75.96L37.04 74.26V74.02H35.8L34.7 75.96H35.18ZM35.3 80.82H35.7C34.94 82.24 34.02 83.1 33.14 83.08C32.38 83.08 31.9 82.54 31.9 81.52C31.9 79.36 33.66 76.66 35.2 76.66C36.08 76.66 36.86 77.32 36.22 78.84L32.96 79.92C32.9 80.2 32.86 80.52 32.86 80.82C32.86 81.56 33.14 81.9 33.7 81.9C34.24 81.9 34.8 81.42 35.3 80.82ZM35.2 78.66C35.4 77.9 35.02 77.56 34.58 77.56C34.1 77.56 33.5 78.26 33.18 79.2L35.2 78.66ZM29.3 77.6H28.22V77.1L29.56 76.92L30.68 75.22H31.3L30.7 76.92H32.28L32.08 77.6H30.46L28.88 82.02C29.6 81.9 30.56 81.22 31 80.6H31.3C30.74 82.08 29.28 83.12 28.06 83.12C27.64 83.12 27.42 82.72 27.58 82.32L29.3 77.6ZM27.66 78.12C27.88 77.36 27.76 76.68 27.18 76.68C26.4567 76.68 26.2302 77.1577 25.5292 78.6362L25.48 78.74V77.86C25.48 77.24 25.28 76.68 24.72 76.68C24.06 76.68 23.46 77.7 23 78.72H23.3C23.62 78.26 23.92 77.98 24.14 77.98C24.42 77.98 24.58 78.42 24.14 79.38L22.86 82.22C22.62 82.76 22.88 83.1 23.4 83.1C23.72 83.1 23.86 83.02 24 82.68L25.26 79.36C25.62 78.92 25.94 78.54 26.34 78.12H27.66ZM21.32 78.66C21.52 77.9 21.14 77.56 20.7 77.56C20.22 77.56 19.64 78.26 19.3 79.2L21.32 78.66ZM21.82 80.82H21.42C20.92 81.42 20.36 81.9 19.82 81.9C19.26 81.9 18.98 81.56 18.98 80.82C18.98 80.52 19.02 80.2 19.08 79.92L22.34 78.84C22.98 77.32 22.22 76.66 21.32 76.66C19.78 76.66 18.02 79.36 18.02 81.52C18.02 82.54 18.5 83.08 19.26 83.08C20.14 83.1 21.06 82.24 21.82 80.82ZM13.42 81.58C13.42 81.84 13.88 82.14 14.2 82.14C15.5 82.14 16.72 79.8 16.7 78.5C16.7 78.06 16.48 77.88 16.18 77.88C15.7 77.88 14.82 78.6 14.26 79.28L13.74 80.68C13.56 81.14 13.42 81.5 13.42 81.58ZM11.32 76.68C11.56 76.68 11.84 76.92 11.72 77.36L9.8 82.06C10.3 81.98 10.82 81.5 11.12 81.06H11.42C10.96 82.24 9.92 83.1 9.02 83.1C8.78 83.1 8.46 82.86 8.62 82.42L10.42 77.72C9.92 77.8 9.4 78.28 9.1 78.72H8.8C9.26 77.54 10.38 76.68 11.32 76.68ZM3.02 74.6H7.32L7.2 74.98C5.74 75.24 5.5 75.36 4.9 76.98L3.62 80.5C3 82.18 3.16 82.38 4.26 82.38C5.619 82.38 6.5102 81.392 7.2883 80.53C7.3461 80.466 7.4033 80.402 7.46 80.34H7.96L6.54 82.86H0L0.120001 82.5C1.56 82.24 1.8 82.12 2.4 80.5L3.7 76.96C4.28 75.34 4.16 75.22 2.9 74.96L3.02 74.6Z"
              fill="black"/>
    </g>
    <defs>
        <clipPath id="clip0_1_2">
            <rect width="145" height="111" fill="white"/>
        </clipPath>
    </defs>
</svg>