<svg width="305" height="291" viewBox="0 0 305 291" fill="none" xmlns="http://www.w3.org/2000/svg">
<g clip-path="url(#clip0_87_1558)">
<path d="M140.048 160.104C139.994 160.104 139.959 160.103 139.947 160.102L133.426 160.103V159.107H139.971C140.122 159.113 143.214 159.203 146.063 155.623C150.308 150.287 153.794 137.078 146.294 104.451C136.21 60.5806 144.621 21.8233 148.705 7.19629C148.906 6.47263 148.942 5.71042 148.81 4.96987C148.678 4.22933 148.381 3.53074 147.944 2.92931C147.506 2.32788 146.94 1.84008 146.289 1.50446C145.638 1.16884 144.921 0.994599 144.194 0.995493H46.7997C46.0593 0.996522 45.3295 1.17838 44.6696 1.52629C44.0097 1.87421 43.4383 2.3784 43.0017 2.99791C41.2716 5.46306 38.8973 10.1988 37.4115 18.7619L36.4652 18.5859C37.9831 9.83676 40.4347 4.96167 42.224 2.41239C42.7498 1.6659 43.4382 1.05837 44.2333 0.639129C45.0283 0.21989 45.9076 0.000752115 46.7997 -0.000485571H144.194C145.07 -0.00135881 145.934 0.208812 146.718 0.613422C147.503 1.01803 148.185 1.606 148.712 2.33086C149.24 3.05573 149.597 3.89763 149.756 4.79006C149.915 5.6825 149.871 6.601 149.629 7.47301C145.566 22.0241 137.198 60.5804 147.23 104.221C154.835 137.306 151.179 150.801 146.773 156.296C143.866 159.921 140.664 160.104 140.048 160.104Z" fill="#E6E6E6"/>
<path d="M122.5 178.281C122.445 178.281 122.411 178.28 122.399 178.279L115.877 178.28V177.284H122.423C122.575 177.288 125.666 177.38 128.514 173.799C132.759 168.463 136.246 155.254 128.746 122.628C118.661 78.7572 127.072 39.9999 131.156 25.3729C131.358 24.6493 131.394 23.8871 131.262 23.1465C131.13 22.406 130.833 21.7074 130.395 21.1059C129.958 20.5045 129.391 20.0167 128.74 19.6811C128.09 19.3455 127.372 19.1712 126.645 19.1721H29.2513C28.5109 19.1732 27.7811 19.355 27.1212 19.7029C26.4613 20.0508 25.8899 20.555 25.4533 21.1746C23.7232 23.6397 21.3489 28.3755 19.8632 36.9385L18.9167 36.7625C20.4347 28.0134 22.8863 23.1383 24.6756 20.589C25.2014 19.8425 25.8898 19.235 26.6849 18.8158C27.4799 18.3965 28.3592 18.1774 29.2513 18.1762H126.645C127.521 18.1753 128.386 18.3854 129.17 18.7901C129.954 19.1947 130.637 19.7826 131.164 20.5075C131.691 21.2324 132.048 22.0743 132.207 22.9667C132.366 23.8591 132.323 24.7776 132.08 25.6496C128.017 40.2008 119.65 78.757 129.681 122.397C137.287 155.483 133.63 168.978 129.224 174.473C126.318 178.097 123.116 178.281 122.5 178.281Z" fill="#CCCCCC"/>
<path d="M104.954 196.458C104.899 196.458 104.865 196.456 104.853 196.455L8.95997 196.456C8.03674 196.457 7.12731 196.224 6.31127 195.777C5.49523 195.329 4.79744 194.682 4.27898 193.891C3.76052 193.099 3.43719 192.189 3.33727 191.238C3.23736 190.287 3.36391 189.326 3.70585 188.437C7.18516 179.434 11.8699 157.832 4.15371 114.317C-4.95773 62.9344 3.19943 44.3646 7.12941 38.7656C7.65527 38.0191 8.34368 37.4116 9.13874 36.9923C9.9338 36.5731 10.8131 36.354 11.7053 36.3527H109.099C109.975 36.3519 110.84 36.562 111.624 36.9666C112.408 37.3712 113.091 37.9592 113.618 38.6841C114.145 39.4089 114.502 40.2508 114.661 41.1433C114.82 42.0357 114.777 42.9542 114.534 43.8262C110.471 58.3773 102.104 96.9336 112.135 140.574C119.74 173.659 116.084 187.155 111.678 192.65C108.772 196.274 105.57 196.458 104.954 196.458ZM11.7053 37.3487C10.9648 37.3497 10.235 37.5316 9.57504 37.8795C8.91513 38.2274 8.3437 38.7316 7.90715 39.3511C4.05007 44.8463 -3.94476 63.1338 5.09941 114.137C12.4707 155.706 8.89564 177.687 4.5985 188.808C4.30889 189.541 4.20018 190.338 4.28219 191.126C4.3642 191.914 4.63434 192.669 5.06824 193.322C5.49848 193.981 6.07829 194.52 6.75682 194.893C7.43535 195.266 8.19185 195.461 8.95996 195.46H104.876C105.028 195.468 108.12 195.556 110.968 191.976C115.213 186.64 118.699 173.431 111.2 140.805C101.115 96.9338 109.526 58.1765 113.61 43.5495C113.812 42.8258 113.848 42.0636 113.715 41.3231C113.583 40.5825 113.287 39.884 112.849 39.2825C112.412 38.6811 111.845 38.1933 111.194 37.8577C110.543 37.5221 109.826 37.3478 109.099 37.3487H11.7053Z" fill="#3F3D56"/>
<path d="M92.5312 81.1718H16.0873C15.0672 81.1718 14.0889 80.7521 13.3676 80.005C12.6463 79.2578 12.2411 78.2445 12.2411 77.1879C12.2411 76.1313 12.6463 75.118 13.3676 74.3708C14.0889 73.6237 15.0672 73.204 16.0873 73.204H92.5312C93.5512 73.204 94.5295 73.6237 95.2509 74.3708C95.9722 75.118 96.3774 76.1313 96.3774 77.1879C96.3774 78.2445 95.9722 79.2578 95.2509 80.005C94.5295 80.7521 93.5512 81.1718 92.5312 81.1718Z" fill="#000091"/>
<path d="M92.5312 98.1035H16.0873C15.0672 98.1035 14.0889 97.6837 13.3676 96.9366C12.6463 96.1895 12.2411 95.1761 12.2411 94.1195C12.2411 93.0629 12.6463 92.0496 13.3676 91.3025C14.0889 90.5553 15.0672 90.1356 16.0873 90.1356H92.5312C93.5512 90.1356 94.5295 90.5553 95.2509 91.3025C95.9722 92.0496 96.3774 93.0629 96.3774 94.1195C96.3774 95.1761 95.9722 96.1895 95.2509 96.9366C94.5295 97.6837 93.5512 98.1035 92.5312 98.1035Z" fill="#CCCCCC"/>
<path d="M92.5312 115.035H16.0873C15.0672 115.035 14.0889 114.615 13.3676 113.868C12.6463 113.121 12.2411 112.108 12.2411 111.051C12.2411 109.995 12.6463 108.981 13.3676 108.234C14.0889 107.487 15.0672 107.067 16.0873 107.067H92.5312C93.5512 107.067 94.5295 107.487 95.2509 108.234C95.9722 108.981 96.3774 109.995 96.3774 111.051C96.3774 112.108 95.9722 113.121 95.2509 113.868C94.5295 114.615 93.5512 115.035 92.5312 115.035Z" fill="#CCCCCC"/>
<path d="M98.3005 131.967H21.8567C20.8366 131.967 19.8583 131.547 19.137 130.8C18.4157 130.053 18.0104 129.039 18.0104 127.983C18.0104 126.926 18.4157 125.913 19.137 125.166C19.8583 124.419 20.8366 123.999 21.8567 123.999H98.3005C99.3206 123.999 100.299 124.419 101.02 125.166C101.742 125.913 102.147 126.926 102.147 127.983C102.147 129.039 101.742 130.053 101.02 130.8C100.299 131.547 99.3206 131.967 98.3005 131.967Z" fill="#CCCCCC"/>
<path d="M98.3005 148.898H21.8567C20.8366 148.898 19.8583 148.479 19.137 147.732C18.4157 146.984 18.0104 145.971 18.0104 144.914C18.0104 143.858 18.4157 142.845 19.137 142.097C19.8583 141.35 20.8366 140.931 21.8567 140.931H98.3005C99.3206 140.931 100.299 141.35 101.02 142.097C101.742 142.845 102.147 143.858 102.147 144.914C102.147 145.971 101.742 146.984 101.02 147.732C100.299 148.479 99.3206 148.898 98.3005 148.898Z" fill="#CCCCCC"/>
<path d="M52.1457 64.2402H16.0873C15.0672 64.2402 14.0889 63.8204 13.3676 63.0733C12.6463 62.3262 12.2411 61.3129 12.2411 60.2563C12.2411 59.1997 12.6463 58.1863 13.3676 57.4392C14.0889 56.6921 15.0672 56.2723 16.0873 56.2723H52.1457C53.1658 56.2723 54.1441 56.6921 54.8654 57.4392C55.5867 58.1863 55.992 59.1997 55.992 60.2563C55.992 61.3129 55.5867 62.3262 54.8654 63.0733C54.1441 63.8204 53.1658 64.2402 52.1457 64.2402Z" fill="#000091"/>
<path d="M47.4897 176.199C48.2657 172.795 51.9119 171.68 54.8929 171.804C56.7763 171.936 58.6445 172.242 60.4752 172.719C62.3907 173.163 64.2875 173.689 66.1748 174.246C69.6357 175.268 73.0608 176.505 76.5787 177.304C79.5074 177.97 82.69 178.36 85.6106 177.441C88.418 176.558 90.7998 174.39 91.5637 171.393C92.2835 168.569 91.2952 165.481 88.653 164.19C86.2434 163.013 83.1997 163.612 82.0055 166.273C80.6589 169.275 82.0043 172.548 84.1365 174.72C85.3484 175.898 86.6758 176.942 88.097 177.835C89.5396 178.854 91.1453 179.599 92.8393 180.036C95.6206 180.651 98.9338 179.744 100.368 176.992C100.687 176.369 100.879 175.684 100.932 174.981C101.016 174.024 99.5735 174.03 99.4892 174.981C99.246 177.722 96.1474 179.006 93.8302 178.705C92.2661 178.437 90.7724 177.836 89.443 176.941C88.1599 176.166 86.9441 175.278 85.8091 174.286C83.8438 172.524 82.0015 169.625 83.3215 166.876C84.3963 164.637 87.1981 164.66 88.9022 166.103C90.966 167.852 90.598 171.025 89.2368 173.101C87.7296 175.4 84.9979 176.363 82.4223 176.467C79.6236 176.58 76.8484 175.915 74.1737 175.128C70.8503 174.151 67.5599 173.057 64.2205 172.136C62.3247 171.614 60.4143 171.142 58.4843 170.776C56.6593 170.359 54.7848 170.225 52.9219 170.377C49.9122 170.737 46.84 172.551 46.0989 175.802C45.8858 176.737 47.2761 177.136 47.4897 176.199Z" fill="#3F3D56"/>
<path d="M194.848 260.667C194.931 270.473 195.625 280.263 196.924 289.976C196.97 290.317 197.019 290.658 197.065 291L285.722 290.486C285.982 290.148 286.238 289.805 286.486 289.458C287.314 288.31 288.09 287.129 288.802 285.907C292.225 280.023 293.792 273.133 292.222 268.379L292.194 268.305C291.855 267.264 291.32 266.303 290.622 265.476C287.041 261.302 279.802 261.998 273.233 265.367C279.125 258.686 283.817 250.257 284.174 242.732C284.523 235.392 280.818 230.149 276.799 225.694C276.667 225.546 276.536 225.403 276.404 225.26C276.34 225.186 276.272 225.117 276.208 225.043C273.073 221.648 269.417 218.3 264.126 218.705C258.324 219.15 251.89 224.184 247.379 230.051C242.868 235.913 239.871 242.573 236.832 249.072C233.79 255.568 230.499 262.229 225.617 267.781C232.229 259.118 237.56 249.262 239.529 239.675C241.499 230.089 239.766 220.882 233.873 216.367C232.083 215.039 230.013 214.174 227.835 213.844C227.581 213.8 227.323 213.765 227.06 213.733C221.605 213.09 215.091 215.045 209.55 219.716C203.446 224.86 199.215 232.485 197.11 239.723C195.005 246.962 194.78 253.931 194.848 260.667Z" fill="#F2F2F2"/>
<path d="M252.853 290.677L254.548 290.667C255.086 290.318 255.627 289.974 256.17 289.633C256.507 289.413 256.847 289.202 257.188 288.986C262.811 285.429 268.469 282.016 274.163 278.749C279.851 275.479 285.568 272.36 291.314 269.392C291.466 269.323 291.591 269.201 291.665 269.048C291.74 268.894 291.76 268.718 291.722 268.55C291.716 268.528 291.707 268.508 291.694 268.489C291.614 268.333 291.435 268.268 291.173 268.401C290.469 268.767 289.76 269.133 289.055 269.508C283.294 272.527 277.557 275.697 271.845 279.018C266.138 282.337 260.462 285.803 254.819 289.415C254.701 289.49 254.582 289.569 254.463 289.643C253.925 289.988 253.391 290.332 252.853 290.677Z" fill="white"/>
<path d="M230.994 290.803L232.042 290.797C232.279 290.454 232.511 290.112 232.748 289.769C238.303 281.7 243.857 273.631 249.409 265.562C258.503 252.353 267.593 239.143 276.681 225.933C276.735 225.862 276.775 225.781 276.799 225.694C276.877 225.401 276.67 225.23 276.404 225.26C276.292 225.277 276.184 225.318 276.089 225.381C275.993 225.444 275.912 225.527 275.85 225.625C270.752 233.033 265.655 240.439 260.559 247.841C251.513 260.985 242.468 274.127 233.425 287.268C232.85 288.103 232.275 288.941 231.699 289.775C231.463 290.118 231.226 290.46 230.994 290.803Z" fill="white"/>
<path d="M207.64 284.497C207.693 286.327 207.81 288.128 207.963 289.912C207.992 290.254 208.022 290.595 208.052 290.936L209.152 290.93C209.118 290.588 209.084 290.247 209.055 289.906C208.822 287.329 208.657 284.722 208.635 282.045C208.606 274.622 209.304 267.215 210.719 259.938C212.224 252.103 214.384 244.418 217.175 236.971C220.105 229.117 223.637 221.518 227.738 214.248C227.815 214.129 227.85 213.986 227.835 213.844C227.79 213.519 227.372 213.423 227.06 213.733C226.999 213.794 226.946 213.864 226.903 213.94C226.395 214.843 225.897 215.75 225.408 216.659C221.459 223.969 218.078 231.595 215.299 239.462C212.651 246.933 210.637 254.63 209.28 262.463C208.009 269.731 207.459 277.114 207.64 284.497Z" fill="white"/>
<path d="M100.485 176.553C100.303 176.396 100.169 176.186 100.102 175.95C100.034 175.715 100.036 175.464 100.106 175.229C100.176 174.994 100.311 174.786 100.495 174.631C100.679 174.476 100.904 174.38 101.14 174.357C103.762 174.095 106.409 174.376 108.925 175.184L134.558 183.383C134.89 183.489 135.198 183.662 135.465 183.892C135.733 184.121 135.954 184.403 136.116 184.721C136.278 185.039 136.378 185.387 136.41 185.745C136.443 186.104 136.407 186.465 136.304 186.808C136.202 187.152 136.035 187.471 135.813 187.748C135.592 188.025 135.319 188.254 135.012 188.422C134.705 188.59 134.369 188.694 134.024 188.727C133.678 188.761 133.329 188.723 132.997 188.617L107.364 180.417C104.846 179.615 102.508 178.301 100.485 176.553Z" fill="#3F3D56"/>
<path d="M205.558 210.615C204.861 210.313 204.238 209.856 203.73 209.277C203.223 208.697 202.844 208.01 202.621 207.263C202.398 206.516 202.336 205.727 202.439 204.952C202.542 204.177 202.808 203.435 203.217 202.778L198.824 178.979L210.022 178.074L210.698 201.354C211.718 202.14 212.423 203.286 212.682 204.576C212.94 205.865 212.733 207.208 212.099 208.349C211.466 209.491 210.45 210.352 209.244 210.77C208.039 211.187 206.727 211.132 205.558 210.615Z" fill="#FFB8B8"/>
<path d="M198.133 198.332L186.727 143.313C186.259 141.053 186.676 138.693 187.888 136.752C189.099 134.811 191.006 133.448 193.187 132.963C195.369 132.478 197.647 132.91 199.521 134.165C201.395 135.42 202.711 137.395 203.179 139.654L214.585 194.673C214.705 195.254 214.597 195.861 214.286 196.36C213.974 196.859 213.485 197.209 212.924 197.335L200.702 200.053C200.424 200.115 200.138 200.119 199.858 200.066C199.579 200.013 199.312 199.904 199.073 199.744C198.835 199.584 198.629 199.377 198.467 199.135C198.306 198.893 198.192 198.62 198.133 198.332Z" fill="#000091"/>
<path d="M179.412 284.881H173.518L170.714 261.332L179.414 261.333L179.412 284.881Z" fill="#FFB8B8"/>
<path d="M169.308 283.137H180.675V290.55H162.151C162.151 289.577 162.336 288.613 162.695 287.713C163.055 286.814 163.582 285.997 164.247 285.308C164.912 284.62 165.701 284.074 166.569 283.701C167.437 283.328 168.368 283.137 169.308 283.137Z" fill="#2F2E41"/>
<path d="M199.124 284.383H193.23L190.426 260.834L199.126 260.835L199.124 284.383Z" fill="#FFB8B8"/>
<path d="M189.02 282.639H200.387V290.052H181.863C181.863 289.079 182.048 288.115 182.407 287.215C182.767 286.316 183.294 285.499 183.959 284.81C184.624 284.122 185.413 283.576 186.281 283.203C187.149 282.83 188.08 282.639 189.02 282.639Z" fill="#2F2E41"/>
<path d="M172.35 280.489C172.129 280.301 171.947 280.069 171.813 279.807C171.68 279.545 171.598 279.259 171.573 278.964L164.721 200.889C164.694 200.586 164.728 200.281 164.819 199.991C164.91 199.702 165.057 199.435 165.251 199.207C165.445 198.978 165.682 198.793 165.947 198.662C166.213 198.532 166.501 198.458 166.795 198.447L201.16 197.112C201.458 197.101 201.754 197.153 202.031 197.265C202.308 197.378 202.56 197.548 202.771 197.766C202.981 197.984 203.146 198.245 203.255 198.532C203.364 198.819 203.414 199.126 203.404 199.434L200.657 277.208C200.636 277.752 200.426 278.271 200.064 278.666C199.702 279.062 199.214 279.307 198.69 279.358L191.761 280.01C191.474 280.037 191.184 280.005 190.909 279.914C190.634 279.823 190.379 279.677 190.16 279.483C189.941 279.288 189.761 279.051 189.632 278.784C189.502 278.517 189.426 278.225 189.406 277.927L186.226 228.518C186.224 228.423 186.204 228.33 186.166 228.243C186.129 228.157 186.075 228.079 186.008 228.014C185.941 227.949 185.862 227.898 185.776 227.865C185.69 227.832 185.599 227.817 185.507 227.821H185.504C185.412 227.818 185.321 227.833 185.235 227.867C185.148 227.9 185.07 227.951 185.003 228.017C184.936 228.082 184.882 228.161 184.845 228.248C184.808 228.335 184.788 228.429 184.787 228.524L181.941 278.266C181.912 278.799 181.701 279.303 181.344 279.688C180.987 280.073 180.509 280.312 179.997 280.363L173.943 280.991C173.659 281.021 173.371 280.992 173.098 280.906C172.824 280.82 172.57 280.678 172.35 280.489Z" fill="#2F2E41"/>
<path d="M185.57 121.272C192.091 121.272 197.378 115.796 197.378 109.041C197.378 102.285 192.091 96.8094 185.57 96.8094C179.048 96.8094 173.761 102.285 173.761 109.041C173.761 115.796 179.048 121.272 185.57 121.272Z" fill="#FFB8B8"/>
<path d="M162.83 201.418C162.619 201.17 162.465 200.878 162.377 200.561C162.29 200.244 162.271 199.911 162.323 199.586C164.503 185.861 163.275 165.686 161.86 151.178C161.491 147.329 162.107 143.448 163.647 139.925C165.186 136.401 167.595 133.36 170.63 131.108L176.797 125.633C177.207 125.273 177.73 125.082 178.267 125.094L193.587 125.547C194.14 125.563 194.665 125.798 195.055 126.203L197.423 131.634L197.447 131.652C200.268 133.8 202.532 136.639 204.035 139.914C205.538 143.189 206.234 146.799 206.06 150.422L203.805 198.695C203.776 199.256 203.546 199.786 203.159 200.18C202.773 200.575 202.258 200.805 201.715 200.826L164.528 202.18C164.504 202.18 164.48 202.181 164.457 202.181C164.148 202.181 163.844 202.113 163.563 201.982C163.283 201.85 163.032 201.658 162.83 201.418Z" fill="#000091"/>
<path d="M118.225 181.274C118.206 180.492 118.354 179.715 118.656 178.999C118.959 178.282 119.409 177.643 119.976 177.126C120.543 176.61 121.212 176.228 121.937 176.008C122.661 175.788 123.424 175.736 124.17 175.854L143.336 161.961L148.716 172.174L128.487 182.341C128.211 183.626 127.491 184.763 126.461 185.534C125.431 186.306 124.163 186.66 122.898 186.528C121.633 186.397 120.459 185.789 119.598 184.821C118.736 183.852 118.248 182.59 118.225 181.274Z" fill="#FFB8B8"/>
<path d="M134.354 183.689C134.073 183.645 133.803 183.544 133.56 183.391C133.317 183.238 133.106 183.037 132.938 182.8L125.542 172.362C125.203 171.882 125.062 171.283 125.148 170.696C125.235 170.109 125.544 169.581 126.006 169.229L169.802 135.932C171.601 134.564 173.851 133.993 176.056 134.343C177.148 134.517 178.197 134.911 179.142 135.505C180.087 136.098 180.91 136.878 181.563 137.801C182.217 138.723 182.689 139.77 182.952 140.882C183.215 141.993 183.264 143.148 183.097 144.279C182.929 145.41 182.548 146.496 181.976 147.475C181.403 148.453 180.65 149.306 179.759 149.983L135.963 183.28C135.593 183.562 135.146 183.715 134.687 183.715C134.576 183.715 134.464 183.706 134.354 183.689Z" fill="#000091"/>
<path d="M186.174 119.929C187.74 117.94 187.568 114.911 186.312 112.699C185.055 110.487 182.921 108.964 180.726 107.774C178.531 106.585 176.198 105.649 174.132 104.232C172.066 102.816 172.156 96.8186 171.606 94.3162L172.918 94.7689C172.414 94.1007 172.252 92.1262 171.748 91.458C173.231 91.6097 174.371 93.0677 175.853 93.2195L174.998 90.8409C180.082 90.5162 183.242 94.1754 188.326 93.8508C190.845 93.6899 193.581 93.5882 195.652 95.0824C197.451 96.3808 198.362 98.6282 198.96 100.814C200.243 105.506 200.442 110.763 198.226 115.066C196.009 119.369 190.9 122.269 186.437 120.715L186.174 119.929Z" fill="#2F2E41"/>
<path d="M121.343 290.825H304.519C304.647 290.825 304.769 290.773 304.859 290.679C304.949 290.586 305 290.459 305 290.327C305 290.195 304.949 290.069 304.859 289.975C304.769 289.882 304.647 289.829 304.519 289.829H121.343C121.215 289.829 121.093 289.882 121.003 289.975C120.912 290.069 120.862 290.195 120.862 290.327C120.862 290.459 120.912 290.586 121.003 290.679C121.093 290.773 121.215 290.825 121.343 290.825Z" fill="#3F3D56"/>
</g>
<defs>
<clipPath id="clip0_87_1558">
<rect width="305" height="291" fill="white" transform="translate(0 -0.000488281)"/>
</clipPath>
</defs>
</svg>
